<?xml version="1.0" standalone="no"?>
<!DOCTYPE svg PUBLIC "-//W3C//DTD SVG 20010904//EN"
 "http://www.w3.org/TR/2001/REC-SVG-20010904/DTD/svg10.dtd">
<svg version="1.0" xmlns="http://www.w3.org/2000/svg"
 width="1000.000000pt" height="1000.000000pt" viewBox="0 0 1000.000000 1000.000000"
 preserveAspectRatio="xMidYMid meet">

<g transform="translate(0.000000,1000.000000) scale(0.100000,-0.100000)"
fill="#000000" stroke="none">
<path d="M0 5000 l0 -5000 5000 0 5000 0 0 5000 0 5000 -5000 0 -5000 0 0
-5000z m4000 4625 l0 -125 -125 0 -125 0 0 125 0 125 125 0 125 0 0 -125z
m5250 0 l0 -125 -125 0 -125 0 0 125 0 125 125 0 125 0 0 -125z m-750 -500 l0
-125 -125 0 -125 0 0 -125 0 -125 -125 0 -125 0 0 -125 0 -125 -125 0 -125 0
0 125 0 125 -125 0 -125 0 0 125 0 125 -2375 0 -2375 0 0 -125 0 -125 -250 0
-250 0 0 125 0 125 -125 0 -125 0 0 125 0 125 3250 0 3250 0 0 -125z m-7500
-750 l0 -125 125 0 125 0 0 -125 0 -125 -125 0 -125 0 0 -125 0 -125 -125 0
-125 0 0 125 0 125 -125 0 -125 0 0 125 0 125 125 0 125 0 0 125 0 125 125 0
125 0 0 -125z m2750 -125 l0 -250 -250 0 -250 0 0 125 0 125 -125 0 -125 0 0
125 0 125 375 0 375 0 0 -250z m1250 125 l0 -125 125 0 125 0 0 125 0 125 375
0 375 0 0 -125 0 -125 -250 0 -250 0 0 -250 0 -250 250 0 250 0 0 -125 0 -125
125 0 125 0 0 -125 0 -125 -250 0 -250 0 0 125 0 125 -125 0 -125 0 0 125 0
125 -125 0 -125 0 0 -375 0 -375 -125 0 -125 0 0 375 0 375 -125 0 -125 0 0
-125 0 -125 -125 0 -125 0 0 -125 0 -125 -250 0 -250 0 0 125 0 125 125 0 125
0 0 125 0 125 250 0 250 0 0 250 0 250 -250 0 -250 0 0 125 0 125 375 0 375 0
0 -125z m2250 0 l0 -125 -125 0 -125 0 0 -125 0 -125 -250 0 -250 0 0 250 0
250 375 0 375 0 0 -125z m-4250 -1000 l0 -125 125 0 125 0 0 -250 0 -250 -125
0 -125 0 0 125 0 125 -125 0 -125 0 0 250 0 250 125 0 125 0 0 -125z m4500
-125 l0 -250 -125 0 -125 0 0 -125 0 -125 -125 0 -125 0 0 250 0 250 125 0
125 0 0 125 0 125 125 0 125 0 0 -250z m-3750 -500 l0 -250 125 0 125 0 0
-125 0 -125 -125 0 -125 0 0 125 0 125 -125 0 -125 0 0 250 0 250 125 0 125 0
0 -250z m3000 0 l0 -250 -125 0 -125 0 0 -125 0 -125 -125 0 -125 0 0 125 0
125 125 0 125 0 0 250 0 250 125 0 125 0 0 -250z m-3750 -375 l0 -125 125 0
125 0 0 -125 0 -125 -125 0 -125 0 0 125 0 125 -125 0 -125 0 0 125 0 125 125
0 125 0 0 -125z m4500 0 l0 -125 -125 0 -125 0 0 -125 0 -125 -125 0 -125 0 0
125 0 125 125 0 125 0 0 125 0 125 125 0 125 0 0 -125z m-2000 -250 l0 -125
125 0 125 0 0 -250 0 -250 -125 0 -125 0 0 -125 0 -125 -125 0 -125 0 0 -625
0 -625 125 0 125 0 0 250 0 250 125 0 125 0 0 -250 0 -250 -125 0 -125 0 0
-125 0 -125 -375 0 -375 0 0 125 0 125 -125 0 -125 0 0 250 0 250 125 0 125 0
0 -250 0 -250 125 0 125 0 0 625 0 625 -125 0 -125 0 0 125 0 125 -125 0 -125
0 0 250 0 250 125 0 125 0 0 125 0 125 375 0 375 0 0 -125z m-5000 -250 l0
-125 -125 0 -125 0 0 125 0 125 125 0 125 0 0 -125z m1500 0 l0 -125 -125 0
-125 0 0 125 0 125 125 0 125 0 0 -125z m1750 0 l0 -125 -125 0 -125 0 0 125
0 125 125 0 125 0 0 -125z m3000 0 l0 -125 -125 0 -125 0 0 125 0 125 125 0
125 0 0 -125z m1750 -250 l0 -125 -125 0 -125 0 0 125 0 125 125 0 125 0 0
-125z m-6500 -375 l0 -250 -125 0 -125 0 0 250 0 250 125 0 125 0 0 -250z
m1250 125 l0 -125 -125 0 -125 0 0 125 0 125 125 0 125 0 0 -125z m4000 0 l0
-125 -125 0 -125 0 0 125 0 125 125 0 125 0 0 -125z m1250 -250 l0 -125 -125
0 -125 0 0 125 0 125 125 0 125 0 0 -125z m-3750 -250 l0 -125 -125 0 -125 0
0 125 0 125 125 0 125 0 0 -125z m1000 0 l0 -125 -125 0 -125 0 0 125 0 125
125 0 125 0 0 -125z m-3750 -1750 l0 -1375 125 0 125 0 0 -250 0 -250 -125 0
-125 0 0 -125 0 -125 -125 0 -125 0 0 1750 0 1750 125 0 125 0 0 -1375z m6500
1000 l0 -375 -125 0 -125 0 0 375 0 375 125 0 125 0 0 -375z m0 -875 l0 -250
-125 0 -125 0 0 250 0 250 125 0 125 0 0 -250z m-4000 -250 l0 -250 625 0 625
0 0 250 0 250 125 0 125 0 0 -375 0 -375 -875 0 -875 0 0 375 0 375 125 0 125
0 0 -250z m5250 -125 l0 -125 -125 0 -125 0 0 125 0 125 125 0 125 0 0 -125z
m-1250 -1000 l0 -875 -125 0 -125 0 0 125 0 125 -125 0 -125 0 0 250 0 250
125 0 125 0 0 500 0 500 125 0 125 0 0 -875z m-5500 250 l0 -125 -125 0 -125
0 0 125 0 125 125 0 125 0 0 -125z m4500 0 l0 -125 -125 0 -125 0 0 125 0 125
125 0 125 0 0 -125z m-3500 -1250 l0 -125 -250 0 -250 0 0 125 0 125 250 0
250 0 0 -125z m2500 0 l0 -125 -500 0 -500 0 0 125 0 125 500 0 500 0 0 -125z
m2250 -500 l0 -125 -125 0 -125 0 0 125 0 125 125 0 125 0 0 -125z"/>
<path d="M5000 7875 l0 -125 125 0 125 0 0 125 0 125 -125 0 -125 0 0 -125z"/>
<path d="M4750 5625 l0 -125 125 0 125 0 0 125 0 125 -125 0 -125 0 0 -125z"/>
<path d="M5250 5625 l0 -125 125 0 125 0 0 125 0 125 -125 0 -125 0 0 -125z"/>
</g>
</svg>
